<mxfile host="app.diagrams.net" modified="2020-05-13T11:08:27.998Z" agent="5.0 (Macintosh; Intel Mac OS X 10_14_6) AppleWebKit/605.1.15 (KHTML, like Gecko) Version/12.1.2 Safari/605.1.15" etag="p0rqe2KKDWzXWWLrH2_G" version="13.1.1" type="github" pages="2">
  <diagram id="hAr6CDP33GyeZNMjy5qR" name="回流">
    <mxGraphModel dx="946" dy="1831" grid="1" gridSize="10" guides="1" tooltips="1" connect="1" arrows="1" fold="1" page="1" pageScale="1" pageWidth="827" pageHeight="1169" math="0" shadow="0">
      <root>
        <mxCell id="0" />
        <mxCell id="1" parent="0" />
        <mxCell id="igZO0AMjIh1gHoKqFqB2-17" value="" style="ellipse;shape=cloud;whiteSpace=wrap;html=1;dashed=1;dashPattern=1 1;strokeColor=#000000;strokeWidth=1;fillColor=#ffffff;gradientColor=none;" parent="1" vertex="1">
          <mxGeometry x="110" y="-70" width="550" height="400" as="geometry" />
        </mxCell>
        <mxCell id="igZO0AMjIh1gHoKqFqB2-1" value="" style="pointerEvents=1;shadow=0;dashed=0;html=1;strokeColor=none;fillColor=#505050;labelPosition=center;verticalLabelPosition=bottom;verticalAlign=top;outlineConnect=0;align=center;shape=mxgraph.office.servers.database_server;" parent="1" vertex="1">
          <mxGeometry x="690" y="90" width="70" height="84" as="geometry" />
        </mxCell>
        <mxCell id="igZO0AMjIh1gHoKqFqB2-6" style="edgeStyle=orthogonalEdgeStyle;rounded=0;orthogonalLoop=1;jettySize=auto;html=1;curved=1;" parent="1" source="igZO0AMjIh1gHoKqFqB2-2" target="igZO0AMjIh1gHoKqFqB2-1" edge="1">
          <mxGeometry relative="1" as="geometry">
            <Array as="points">
              <mxPoint x="180" y="242" />
              <mxPoint x="180" y="300" />
              <mxPoint x="430" y="300" />
              <mxPoint x="430" y="421" />
              <mxPoint x="640" y="421" />
              <mxPoint x="640" y="132" />
            </Array>
          </mxGeometry>
        </mxCell>
        <mxCell id="igZO0AMjIh1gHoKqFqB2-2" value="" style="shadow=0;dashed=0;html=1;strokeColor=none;fillColor=#505050;labelPosition=center;verticalLabelPosition=bottom;verticalAlign=top;outlineConnect=0;align=center;shape=mxgraph.office.databases.database_cube;" parent="1" vertex="1">
          <mxGeometry x="40" y="197" width="80" height="90" as="geometry" />
        </mxCell>
        <mxCell id="igZO0AMjIh1gHoKqFqB2-3" value="数据仓库" style="text;html=1;strokeColor=none;fillColor=none;align=center;verticalAlign=middle;whiteSpace=wrap;rounded=0;" parent="1" vertex="1">
          <mxGeometry x="35" y="310" width="90" height="20" as="geometry" />
        </mxCell>
        <mxCell id="igZO0AMjIh1gHoKqFqB2-4" value="数据库" style="text;html=1;strokeColor=none;fillColor=none;align=center;verticalAlign=middle;whiteSpace=wrap;rounded=0;" parent="1" vertex="1">
          <mxGeometry x="680" y="190" width="70" height="20" as="geometry" />
        </mxCell>
        <mxCell id="igZO0AMjIh1gHoKqFqB2-9" value="" style="shadow=0;dashed=0;html=1;strokeColor=none;fillColor=#505050;labelPosition=center;verticalLabelPosition=bottom;verticalAlign=top;outlineConnect=0;align=center;shape=mxgraph.office.databases.database_public_folder;" parent="1" vertex="1">
          <mxGeometry x="274" y="161" width="53" height="54" as="geometry" />
        </mxCell>
        <mxCell id="igZO0AMjIh1gHoKqFqB2-10" value="数据校验" style="text;html=1;strokeColor=none;fillColor=none;align=center;verticalAlign=middle;whiteSpace=wrap;rounded=0;" parent="1" vertex="1">
          <mxGeometry x="264.5" y="223" width="77" height="20" as="geometry" />
        </mxCell>
        <mxCell id="igZO0AMjIh1gHoKqFqB2-11" value="消息通知" style="text;html=1;strokeColor=none;fillColor=none;align=center;verticalAlign=middle;whiteSpace=wrap;rounded=0;" parent="1" vertex="1">
          <mxGeometry x="360.5" y="225" width="90" height="20" as="geometry" />
        </mxCell>
        <mxCell id="igZO0AMjIh1gHoKqFqB2-18" value="" style="group" parent="1" vertex="1" connectable="0">
          <mxGeometry x="240.5" y="31" width="120" height="110" as="geometry" />
        </mxCell>
        <mxCell id="igZO0AMjIh1gHoKqFqB2-7" value="更新式写入" style="text;html=1;strokeColor=none;fillColor=none;align=center;verticalAlign=middle;whiteSpace=wrap;rounded=0;" parent="igZO0AMjIh1gHoKqFqB2-18" vertex="1">
          <mxGeometry y="63" width="120" height="60" as="geometry" />
        </mxCell>
        <mxCell id="igZO0AMjIh1gHoKqFqB2-12" value="" style="shadow=0;dashed=0;html=1;strokeColor=none;fillColor=#505050;labelPosition=center;verticalLabelPosition=bottom;verticalAlign=top;outlineConnect=0;align=center;shape=mxgraph.office.databases.database_mirror;" parent="igZO0AMjIh1gHoKqFqB2-18" vertex="1">
          <mxGeometry x="26.5" y="13" width="60" height="59" as="geometry" />
        </mxCell>
        <mxCell id="igZO0AMjIh1gHoKqFqB2-13" value="" style="shadow=0;dashed=0;html=1;strokeColor=none;fillColor=#505050;labelPosition=center;verticalLabelPosition=bottom;verticalAlign=top;outlineConnect=0;align=center;shape=mxgraph.office.databases.database_partition_3;" parent="1" vertex="1">
          <mxGeometry x="376.5" y="44" width="57" height="59" as="geometry" />
        </mxCell>
        <mxCell id="8WftR03cfVT1UNFW1D-W-1" value="PostgreSQL" style="text;html=1;strokeColor=none;fillColor=none;align=center;verticalAlign=middle;whiteSpace=wrap;rounded=0;" vertex="1" parent="1">
          <mxGeometry x="385" y="114" width="40" height="20" as="geometry" />
        </mxCell>
        <mxCell id="8WftR03cfVT1UNFW1D-W-2" value="" style="pointerEvents=1;shadow=0;dashed=0;html=1;strokeColor=none;fillColor=#505050;labelPosition=center;verticalLabelPosition=bottom;verticalAlign=top;outlineConnect=0;align=center;shape=mxgraph.office.communications.3rd_party_call_center_solution;" vertex="1" parent="1">
          <mxGeometry x="376.5" y="155" width="61" height="66" as="geometry" />
        </mxCell>
        <mxCell id="8WftR03cfVT1UNFW1D-W-3" value="" style="pointerEvents=1;shadow=0;dashed=0;html=1;strokeColor=none;fillColor=#505050;labelPosition=center;verticalLabelPosition=bottom;verticalAlign=top;outlineConnect=0;align=center;shape=mxgraph.office.concepts.get_started;" vertex="1" parent="1">
          <mxGeometry x="490" y="90" width="52" height="64" as="geometry" />
        </mxCell>
        <mxCell id="8WftR03cfVT1UNFW1D-W-4" value="接口调用" style="text;html=1;strokeColor=none;fillColor=none;align=center;verticalAlign=middle;whiteSpace=wrap;rounded=0;" vertex="1" parent="1">
          <mxGeometry x="480" y="170" width="80" height="20" as="geometry" />
        </mxCell>
      </root>
    </mxGraphModel>
  </diagram>
  <diagram id="JcPVPGOFaC2fabF5r1Ph" name="采集">
    
    <mxGraphModel dx="946" dy="662" grid="1" gridSize="10" guides="1" tooltips="1" connect="1" arrows="1" fold="1" page="1" pageScale="1" pageWidth="827" pageHeight="1169" math="0" shadow="0">
      
      <root>
        
        <mxCell id="NBDcL0xnRRLrloa_IqE0-0" />
        
        <mxCell id="NBDcL0xnRRLrloa_IqE0-1" parent="NBDcL0xnRRLrloa_IqE0-0" />
        
        <mxCell id="NBDcL0xnRRLrloa_IqE0-16" style="edgeStyle=orthogonalEdgeStyle;curved=1;rounded=0;orthogonalLoop=1;jettySize=auto;html=1;entryX=0;entryY=0.5;entryDx=0;entryDy=0;entryPerimeter=0;" edge="1" parent="NBDcL0xnRRLrloa_IqE0-1" source="NBDcL0xnRRLrloa_IqE0-14" target="NBDcL0xnRRLrloa_IqE0-15">
          
          <mxGeometry relative="1" as="geometry" />
          
        </mxCell>
        
        <mxCell id="NBDcL0xnRRLrloa_IqE0-14" value="" style="rounded=1;whiteSpace=wrap;html=1;dashed=1;strokeColor=#000000;strokeWidth=1;fillColor=none;gradientColor=none;" vertex="1" parent="NBDcL0xnRRLrloa_IqE0-1">
          
          <mxGeometry x="75" y="100" width="275" height="210" as="geometry" />
          
        </mxCell>
        
        <mxCell id="NBDcL0xnRRLrloa_IqE0-2" value="" style="verticalLabelPosition=bottom;html=1;verticalAlign=top;align=center;strokeColor=none;fillColor=#666666;shape=mxgraph.azure.storage;pointerEvents=1;dashed=1;dashPattern=1 1;" vertex="1" parent="NBDcL0xnRRLrloa_IqE0-1">
          
          <mxGeometry x="110" y="120" width="50" height="40" as="geometry" />
          
        </mxCell>
        
        <mxCell id="NBDcL0xnRRLrloa_IqE0-3" value="" style="verticalLabelPosition=bottom;html=1;verticalAlign=top;align=center;strokeColor=none;fillColor=#666666;shape=mxgraph.azure.storage;pointerEvents=1;dashed=1;dashPattern=1 1;" vertex="1" parent="NBDcL0xnRRLrloa_IqE0-1">
          
          <mxGeometry x="110" y="180" width="50" height="40" as="geometry" />
          
        </mxCell>
        
        <mxCell id="NBDcL0xnRRLrloa_IqE0-4" value="" style="verticalLabelPosition=bottom;html=1;verticalAlign=top;align=center;strokeColor=none;fillColor=#666666;shape=mxgraph.azure.storage;pointerEvents=1;dashed=1;dashPattern=1 1;" vertex="1" parent="NBDcL0xnRRLrloa_IqE0-1">
          
          <mxGeometry x="110" y="240" width="50" height="40" as="geometry" />
          
        </mxCell>
        
        <mxCell id="NBDcL0xnRRLrloa_IqE0-5" value="" style="verticalLabelPosition=bottom;html=1;verticalAlign=top;align=center;strokeColor=none;fillColor=#666666;shape=mxgraph.azure.storage;pointerEvents=1;dashed=1;dashPattern=1 1;" vertex="1" parent="NBDcL0xnRRLrloa_IqE0-1">
          
          <mxGeometry x="180" y="240" width="50" height="40" as="geometry" />
          
        </mxCell>
        
        <mxCell id="NBDcL0xnRRLrloa_IqE0-6" value="" style="verticalLabelPosition=bottom;html=1;verticalAlign=top;align=center;strokeColor=none;fillColor=#666666;shape=mxgraph.azure.storage;pointerEvents=1;dashed=1;dashPattern=1 1;" vertex="1" parent="NBDcL0xnRRLrloa_IqE0-1">
          
          <mxGeometry x="180" y="180" width="50" height="40" as="geometry" />
          
        </mxCell>
        
        <mxCell id="NBDcL0xnRRLrloa_IqE0-7" value="" style="verticalLabelPosition=bottom;html=1;verticalAlign=top;align=center;strokeColor=none;fillColor=#666666;shape=mxgraph.azure.storage;pointerEvents=1;dashed=1;dashPattern=1 1;" vertex="1" parent="NBDcL0xnRRLrloa_IqE0-1">
          
          <mxGeometry x="250" y="180" width="50" height="40" as="geometry" />
          
        </mxCell>
        
        <mxCell id="NBDcL0xnRRLrloa_IqE0-8" value="" style="verticalLabelPosition=bottom;html=1;verticalAlign=top;align=center;strokeColor=none;fillColor=#666666;shape=mxgraph.azure.storage;pointerEvents=1;dashed=1;dashPattern=1 1;" vertex="1" parent="NBDcL0xnRRLrloa_IqE0-1">
          
          <mxGeometry x="250" y="120" width="50" height="40" as="geometry" />
          
        </mxCell>
        
        <mxCell id="NBDcL0xnRRLrloa_IqE0-9" value="" style="verticalLabelPosition=bottom;html=1;verticalAlign=top;align=center;strokeColor=none;fillColor=#666666;shape=mxgraph.azure.storage;pointerEvents=1;dashed=1;dashPattern=1 1;" vertex="1" parent="NBDcL0xnRRLrloa_IqE0-1">
          
          <mxGeometry x="180" y="120" width="50" height="40" as="geometry" />
          
        </mxCell>
        
        <mxCell id="NBDcL0xnRRLrloa_IqE0-10" value="" style="verticalLabelPosition=bottom;html=1;verticalAlign=top;align=center;strokeColor=none;fillColor=#666666;shape=mxgraph.azure.storage;pointerEvents=1;dashed=1;dashPattern=1 1;" vertex="1" parent="NBDcL0xnRRLrloa_IqE0-1">
          
          <mxGeometry x="250" y="240" width="50" height="40" as="geometry" />
          
        </mxCell>
        
        <mxCell id="NBDcL0xnRRLrloa_IqE0-15" value="" style="verticalLabelPosition=bottom;html=1;verticalAlign=top;align=center;strokeColor=none;fillColor=#666666;shape=mxgraph.azure.storage;pointerEvents=1;dashed=1;dashPattern=1 1;" vertex="1" parent="NBDcL0xnRRLrloa_IqE0-1">
          
          <mxGeometry x="570" y="150" width="87.5" height="70" as="geometry" />
          
        </mxCell>
        
        <mxCell id="NBDcL0xnRRLrloa_IqE0-17" value="业务库分表00~ff" style="text;html=1;strokeColor=none;fillColor=none;align=center;verticalAlign=middle;whiteSpace=wrap;rounded=0;dashed=1;dashPattern=1 1;" vertex="1" parent="NBDcL0xnRRLrloa_IqE0-1">
          
          <mxGeometry x="120" y="340" width="150" height="20" as="geometry" />
          
        </mxCell>
        
        <mxCell id="NBDcL0xnRRLrloa_IqE0-18" value="数据仓库" style="text;html=1;strokeColor=none;fillColor=none;align=center;verticalAlign=middle;whiteSpace=wrap;rounded=0;dashed=1;dashPattern=1 1;" vertex="1" parent="NBDcL0xnRRLrloa_IqE0-1">
          
          <mxGeometry x="575.75" y="240" width="76" height="20" as="geometry" />
          
        </mxCell>
        
      </root>
      
    </mxGraphModel>
    
  </diagram>
</mxfile>
